<?xml version="1.0" encoding="UTF-8"?>
<svg id="_최종" xmlns="http://www.w3.org/2000/svg" xmlns:xlink="http://www.w3.org/1999/xlink" version="1.1" viewBox="0 0 207 151">
  <!-- Generator: Adobe Illustrator 30.1.0, SVG Export Plug-In . SVG Version: 2.1.1 Build 136)  -->
  <defs>
    <style>
      .st0 {
        fill: none;
      }

      .st1 {
        fill: #abd037;
      }

      .st2 {
        fill: #fff;
      }

      .st3 {
        clip-path: url(#clippath);
      }
    </style>
    <clipPath id="clippath">
      <rect class="st0" y="0" width="207" height="151"/>
    </clipPath>
  </defs>
  <g class="st3">
    <g>
      <path class="st1" d="M162.55,55.98c5.49,0,9.95-4.47,9.95-9.99s-4.46-9.99-9.95-9.99-9.95,4.47-9.95,9.99,4.45,9.99,9.95,9.99Z"/>
      <path class="st2" d="M34,36h19.9l19.9,79.11h-19.9l-19.9-79.11Z"/>
      <path class="st2" d="M73.8,36h19.9l19.9,79.11h-19.9l-19.9-79.11Z"/>
      <path class="st2" d="M65.04,71.62l9.75,39.73,7.76-31.62-9.75-39.73-7.76,31.62Z"/>
      <path class="st2" d="M113.07,36.04h19.77l19.77,79.01h-19.77s-19.77-79.01-19.77-79.01Z"/>
      <path class="st2" d="M104.28,71.15l9.88,39.5,7.69-30.72-9.88-39.5-7.69,30.72Z"/>
    </g>
  </g>
</svg>